<svg 
          width="18.947368621826172" 
          height="18.947368621826172" fill="none" 
          xmlns="http://www.w3.org/2000/svg">
          <defs>
            <linearGradient id="e4757">
        <stop offset="0%" style="stop-color:rgb(142.00000673532486,142.00000673532486,147.00000643730164);stop-opacity:1" />
        <stop offset="100%" style="stop-color:rgb(174.00000482797623,174.00000482797623,178.00000458955765);stop-opacity:1" />
        </linearGradient>
          </defs>
          <path d="M 1.3569953441619873 0.0005910554900765419 C 0.8074120283126831 0.0007354326371569186 0.31271256506443024 0.33395707607269287 0.10590863227844238 0.8433030843734741 C -0.10089530050754547 1.3526490926742554 0.02143523097038269 1.9365505576133728 0.41528046131134033 2.3199799060821533 L 7.563873291015625 9.470768928527832 L 0.41528046131134033 16.621559143066406 C 0.06245717406272888 16.960412740707397 -0.0796680673956871 17.463590621948242 0.043717481195926666 17.937034606933594 C 0.16710302978754044 18.410478591918945 0.5367190837860107 18.780207872390747 1.0100176334381104 18.90363121032715 C 1.48331618309021 19.02705454826355 1.9863393604755402 18.884885638952255 2.3250887393951416 18.531953811645508 L 9.47368049621582 11.381163597106934 L 16.622272491455078 18.531953811645508 C 16.961021035909653 18.884889543056488 17.46404641866684 19.027061708271503 17.937347412109375 18.90363883972168 C 18.41064840555191 18.780215971171856 18.780267246067524 18.41048488020897 18.90365219116211 17.93703842163086 C 19.027037136256695 17.46359196305275 18.88490891456604 16.96041178703308 18.532081604003906 16.621559143066406 L 11.383488655090332 9.470768928527832 L 18.532081604003906 2.3199799060821533 C 18.931530475616455 1.9315797090530396 19.051635950803757 1.3377153873443604 18.834524154663086 0.8245431780815125 C 18.617412358522415 0.31137096881866455 18.10762131214142 -0.01583492662757635 17.550798416137695 0.0005910554900765419 C 17.199918895959854 0.011049313470721245 16.86689220368862 0.1577395498752594 16.622272491455078 0.40958458185195923 L 9.47368049621582 7.5603742599487305 L 2.3250887393951416 0.40958458185195923 C 2.070813089609146 0.14812228083610535 1.7216549813747406 0.0006123190232756315 1.3569953441619873 0.0005910554900765419 Z" fill="url(#e4757)"/>
        </svg>