<svg 
          width="12.729166984558105" 
          height="21.541667938232422" fill="none" 
          xmlns="http://www.w3.org/2000/svg">
          <defs>
            <linearGradient id="e4769">
        <stop offset="0%" style="stop-color:rgb(175.00000476837158,82.00000271201134,222.00000196695328);stop-opacity:1" />
        <stop offset="100%" style="stop-color:rgb(191.00000381469727,90.00000223517418,242.00000077486038);stop-opacity:1" />
        </linearGradient>
          </defs>
          <path d="M 6.364583492279053 0 C 6.159862115979195 0.0000249931363214273 5.976771771907806 0.12742535769939423 5.905599117279053 0.3193766474723816 L 0.151082381606102 11.229817390441895 C 0.05280822515487671 11.385554641485214 0.00044349124073050916 11.56584869325161 0 11.75 C 0 12.290778815746307 0.4383878707885742 12.729166984558105 0.9791666865348816 12.729166984558105 L 5.875 12.729166984558105 L 5.875 21.05208396911621 C 5.875 21.322473376989365 6.094194084405899 21.54166603088379 6.364583492279053 21.54166603088379 C 6.5482907593250275 21.541881592056598 6.716658145189285 21.439237505197525 6.8006181716918945 21.27583885192871 L 12.597208023071289 10.283162117004395 L 12.595295906066895 10.28125 C 12.682175360620022 10.132658675312996 12.72835061774822 9.963791221380234 12.729166984558105 9.791666984558105 C 12.729166984558105 9.250888168811798 12.290778815746307 8.8125 11.75 8.8125 L 6.854166507720947 8.8125 L 6.854166507720947 0.4895833432674408 C 6.854166507720947 0.2191939353942871 6.634972900152206 0 6.364583492279053 0 Z" fill="url(#e4769)"/>
        </svg>