<svg 
          width="19.58333396911621" 
          height="19.58333396911621" fill="none" 
          xmlns="http://www.w3.org/2000/svg">
          <defs>
            <linearGradient id="e4765">
        <stop offset="0%" style="stop-color:rgb(255,149.00000631809235,0);stop-opacity:1" />
        <stop offset="100%" style="stop-color:rgb(255,159.0000057220459,10.000000353902578);stop-opacity:1" />
        </linearGradient>
          </defs>
          <path d="M 1.46875 0 C 1.3434166610240936 0 1.2185576930642128 0.04845348000526428 1.1225993633270264 0.1434326469898224 C 0.9316618591547012 0.3343701511621475 0.9316618591547012 0.6447965055704117 1.1225993633270264 0.8357340097427368 L 3.029296875 2.742431640625 C 1.17012619972229 4.5236711502075195 0 7.019168376922607 0 9.791666984558105 C 0 15.188181400299072 4.395152568817139 19.58333396911621 9.791666984558105 19.58333396911621 C 15.188181400299072 19.58333396911621 19.58333396911621 15.188181400299072 19.58333396911621 9.791666984558105 C 19.58333396911621 4.7627787590026855 15.770934104919434 0.6047231331467628 10.8779296875 0.06311032921075821 C 10.8455341309309 0.059576255502179265 10.812981989234686 0.05766145983943716 10.7803955078125 0.05737309530377388 C 10.258624911308289 0.05234468588605523 9.824556423351169 0.4573236107826233 9.793437004089355 0.9781896471977234 C 9.762317584827542 1.4990556836128235 10.145079731941223 1.9528364650905132 10.663737297058105 2.0099689960479736 C 14.581274509429932 2.4436061680316925 17.625 5.749555587768555 17.625 9.791666984558105 C 17.625 14.130027294158936 14.130027294158936 17.625 9.791666984558105 17.625 C 5.453306198120117 17.625 1.9583333730697632 14.130027294158936 1.9583333730697632 9.791666984558105 C 1.9583333730697632 7.549900054931641 2.9056897163391113 5.546389102935791 4.410074710845947 4.123209476470947 L 6.0184326171875 5.7315673828125 C 6.209370121359825 5.922504886984825 6.519796386361122 5.922504886984825 6.710733890533447 5.7315673828125 C 6.806692220270634 5.636588215827942 6.854166507720947 5.510749846696854 6.854166507720947 5.385416507720947 L 6.854166507720947 0.9791666865348816 C 6.854166507720947 0.4383878707885742 6.415778815746307 0 5.875 0 L 1.46875 0 Z" fill="url(#e4765)"/>
        </svg>